# xmcd CD database file
#
# Track frame offsets:
#	183
#	14968
#	27178
#	37933
#	50288
#	62743
#	75515
#	90275
#	107298
#	119668
#	134458
#	150823
#	161915
#	172335
#	182330
#	194750
#	207035
#	221415
#
# Disc length: 3128 seconds
#
# Revision: 2
# Processed by: cddbd v1.4PL0 Copyright (c) Steve Scherf et al.
# Submitted via: CDex 1.50
#
DISCID=ec0c3612
DTITLE=Elmore James - Let's Cut It
DYEAR=1987
DGENRE=Blues
TTITLE0=Dust My Blues
TTITLE1=Blues Before Sunrise
TTITLE2=No Love In My Heart
TTITLE3=Sho Nuff I Do
TTITLE4=Standing At The Crossroads
TTITLE5=I Was A Fool
TTITLE6=Sunnyland
TTITLE7=Canton, Mississippi Breakdown
TTITLE8=Happy Home
TTITLE9=Wild About You Baby
TTITLE10=Long Tall Woman
TTITLE11=So Mean To Me
TTITLE12=Hawaiian Boogie
TTITLE13=Mean And Evil
TTITLE14=Dark And Dreary
TTITLE15=My Best Friend
TTITLE16=I Believe
TTITLE17=Goodbye Baby
EXTD=YEAR: 1987
EXTT0=
EXTT1=
EXTT2=
EXTT3=
EXTT4=
EXTT5=
EXTT6=
EXTT7=
EXTT8=
EXTT9=
EXTT10=
EXTT11=
EXTT12=
EXTT13=
EXTT14=
EXTT15=
EXTT16=
EXTT17=
PLAYORDER=
